<svg width="32" height="32" viewBox="0 0 32 32" fill="none"
  xmlns="http://www.w3.org/2000/svg">
  <g clip-path="url(#clip0_301_2)">
    <g clip-path="url(#clip1_301_2)">
      <path fill-rule="evenodd" clip-rule="evenodd" d="M22.7962 13.6508C24.3671 12.5581 25.5635 10.8165 25.5635 8.66518C25.5635 4.97717 22.5493 2.14286 18.8272 2.14286H10.5922C9.85954 2.14286 9.26562 2.73677 9.26562 3.46939V14.0039C9.26562 14.734 9.8557 15.3269 10.5859 15.3304L12.4414 15.3392H19.5784C21.6956 15.3392 23.369 17.0315 23.369 19.1829C23.369 20.9114 22.6753 22.341 21.3379 22.8632C20.7102 23.1081 20.1432 23.622 20.1432 24.2959C20.1432 25.1563 20.8494 25.8748 21.6907 25.6952C24.6693 25.0603 26.553 22.5718 26.553 19.2853C26.553 16.69 24.9476 14.6753 22.7962 13.6508ZM22.3786 8.76763C22.3786 6.75287 20.8078 5.06121 18.8272 5.06121H12.4493V12.4215H18.8272C20.8078 12.4215 22.3786 10.8165 22.3786 8.76763Z" fill="#4C4BE8"/>
      <path fill-rule="evenodd" clip-rule="evenodd" d="M10.8566 18.8571C9.97743 18.8571 9.26474 19.5698 9.26474 20.449V23.0751H6.74433C5.93845 23.0751 5.28516 23.7285 5.28516 24.5342C5.28516 25.3401 5.93845 25.9935 6.74433 25.9935H9.26474V28.4081C9.26474 29.2873 9.97743 30 10.8566 30C11.7357 30 12.4484 29.2873 12.4484 28.4081V25.9935H14.9688C15.7747 25.9935 16.428 25.3401 16.428 24.5342C16.428 23.7285 15.7747 23.0751 14.9688 23.0751H12.4484V20.449C12.4484 19.5698 11.7357 18.8571 10.8566 18.8571Z" fill="#4C4BE8"/>
    </g>
  </g>
  <defs>
    <clipPath id="clip0_301_2">
      <rect width="32" height="32" fill="white"/>
    </clipPath>
    <clipPath id="clip1_301_2">
      <rect width="30" height="30" fill="white" transform="translate(1)"/>
    </clipPath>
  </defs>
</svg>
